# xmcd
#
# Track frame offsets:
#	150
#	13704
#	25943
#	29396
#	46014
#	64741
#	82053
#	93025
#	108241
#	129288
#	143094
#	158509
#
# Disc length: 2312 seconds
#
# Revision: 1
# Processed by: cddbd v1.5.2PL0 Copyright (c) Steve Scherf et al.
# Submitted via: EasyCDDAExtractor 11.1.0.1
#
DISCID=8709060c
DTITLE=Matt King - Rube
DYEAR=1900
DGENRE=
TTITLE0=Shanty Town
TTITLE1=Cursing The Ohio
TTITLE2=Prelude To Apathy
TTITLE3=American Dream
TTITLE4=The Mountain
TTITLE5=Graveyard Shift
TTITLE6=Silvertone
TTITLE7=Rabbit's Food
TTITLE8=Eden's Apple
TTITLE9=Hell's Kitchen
TTITLE10=Bristol
TTITLE11=Waiting Ad The Bottom
EXTD=
EXTT0=
EXTT1=
EXTT2=
EXTT3=
EXTT4=
EXTT5=
EXTT6=
EXTT7=
EXTT8=
EXTT9=
EXTT10=
EXTT11=
PLAYORDER=
